<?xml version="1.0" encoding="UTF-8"?>
<svg id="Layer_1" xmlns="http://www.w3.org/2000/svg" xmlns:svg="http://www.w3.org/2000/svg" xmlns:sodipodi="http://sodipodi.sourceforge.net/DTD/sodipodi-0.dtd" xmlns:inkscape="http://www.inkscape.org/namespaces/inkscape" version="1.1" viewBox="0 0 579.2 407.19">
  <!-- Generator: Adobe Illustrator 29.6.1, SVG Export Plug-In . SVG Version: 2.1.1 Build 9)  -->
  <defs>
    <style>
      .st0 {
        fill: #0432ff;
      }

      .st1 {
        fill: #fcce62;
      }
    </style>
  </defs>
  <sodipodi:namedview id="namedview119" bordercolor="#666666" borderopacity="1.0" inkscape:current-layer="g116" inkscape:cx="499.81219" inkscape:cy="277.172" inkscape:pagecheckerboard="0" inkscape:pageopacity="0.0" inkscape:pageshadow="2" inkscape:window-height="1001" inkscape:window-maximized="1" inkscape:window-width="1920" inkscape:window-x="-9" inkscape:window-y="-9" inkscape:zoom="1.3294994" pagecolor="#ffffff" showgrid="false"/>
  <g id="g116">
    <path id="path68" class="st0" d="M442.44,99.66c-21.27-15.46-58.59-11.61-79.87.97-42.04,23.68-68.62,67.65-72.96,111.63,12.08-31.42,41.06-65.25,73.94-75.4,27.4-9.12,55.97-1.06,71.77,19.04,39.32,46.73,3.62,114.34,3.62,114.34,27.54-25.61,44.09-63.85,41.68-104.94l98.58,170.38h-164.97c43.49-22.21,69.17-68.34,72.55-113.27-15.48,38.66-54.14,79.24-98.59,78.76-23.67,0-45.41-12.08-57.03-33.34-16.91-29.96-8.21-71.52,5.8-100.02-30.94,28.01-45.91,71.02-40.6,115.96,4.84,19.34,14.14,40.82,32.97,51.91h-137.78L385.22,0l57.22,99.66"/>
    <path id="path70" d="M301.97,354.38c-21.06-47.01-49.45-77.11-72.87-95.54,17.22-2.36,37.14-9.21,64.49-24.62l8.97-5.06-4.13-9.42-21.85-49.89-5.2-11.86-11.1,6.66c-.25.15-23.27,12.04-49.87,9.1,28.7-7.56,49.93-33.75,49.93-64.82,0-36.95-30.07-67.04-67.03-67.04s-67.04,30.09-67.04,67.04c0,15.17,5.09,29.2,13.63,40.46-35.95,24.96-46.26,65.81-49.33,102.08-.76,8.8-1.57,12.17-1.79,13.02-22.77,47.35-72.5,54.19-74.6,54.46L0,320.75s4.9,13.43,4.9,13.43l23.42,63.72,3.41,9.29,9.67-2.08c71.77-15.45,97.85-48.56,118.16-75.85,50.81,25.65,69.26,66.16,69.26,66.16,1.39,2.55,5.54,10.3,5.54,10.3l10.19-5.93,52.77-30.94,8.83-5.16-4.18-9.32"/>
    <path id="path72" class="st1" d="M193.32,65.91c23.73,0,43.02,19.31,43.02,43.02s-19.3,43.03-43.02,43.03-43-19.31-43-43.03,19.29-43.02,43-43.02"/>
    <path id="path74" class="st1" d="M243.77,373.83c-9.46-16.83-32.43-46.92-82.92-69.05v.03c-1.51-1.03-3.33-1.64-5.3-1.64-3,0-5.66,1.39-7.4,3.56l-.12-.06-5.27,7.01c-18.23,24.54-38.81,52.18-96.54,66.89l-15.45-41.99c20.37-5.73,58.03-21.71,78.45-64.08,1.48-2.79,2.93-8.02,4.05-21.12,4.01-47.19,16.49-72.44,43.96-88,6.95,4.46,14.75,7.65,23.11,9.31.09.95.16,1.97.25,2.75.24,3.39.53,6.91,1.76,10.08l1.89,5.03,5.13,1.71c28.64,9.6,56.14,1.72,71.09-4.47l12.92,29.49c-41.76,21.79-60.1,18.7-81.89,15.39,0,0-5.11-.84-7.01-.84-6.28,0-9.95,4.71-10.81,10.93-1.01,7.2,4.93,9.92,4.93,9.92,2.47,2.16,60.69,24.15,98.24,99.78l-33.06,19.36"/>
  </g>
</svg>