<?xml version="1.0" encoding="UTF-8"?>
<svg id="Layer_1" data-name="Layer 1" xmlns="http://www.w3.org/2000/svg" viewBox="0 0 595.28 57.01">
  <defs>
    <style>
      .cls-1 {
        fill: #fff;
      }
    </style>
  </defs>
  <path id="path76" class="cls-1" d="M39.03,41.81L24.63.79h-10.76L0,41.81h9.42l2.49-7.59h14.17l2.54,7.59h10.4M23.71,26.74h-9.49l2.68-7.72c.85-2.48,1.53-5.04,1.95-7.29h.12c.42,2.42,1.1,4.49,1.89,6.81l2.86,8.2Z"/>
  <path id="path78" class="cls-1" d="M78.6,20.67c0-14.4-8.09-20.67-18.9-20.67s-20.36,8.45-20.36,21.82,6.2,20.8,18.9,20.8c11.36,0,20.36-8.46,20.36-21.95M68.56,21.27c0,9.3-5.29,12.64-9.78,12.64-6.5,0-9.43-4.98-9.43-12.88,0-8.57,4.68-12.4,9.61-12.4,6.26,0,9.6,4.38,9.6,12.64Z"/>
  <polyline id="polyline80" class="cls-1" points="83.95 41.81 83.95 .79 93.43 .79 93.43 33.43 105.83 33.43 105.83 41.81 83.95 41.81"/>
  <polyline id="polyline82" class="cls-1" points="129.06 41.81 121.27 41.81 129.06 .79 136.83 .79 129.06 41.81"/>
  <path id="path84" class="cls-1" d="M163.09,41.81h-7.66l3.65-18.96c.73-3.7.13-5.23-1.82-5.23-4.07,0-9.54,9.49-10.89,16.53l-1.46,7.66h-7.6l3.04-15.8c.54-2.8,2.18-11.67,2.61-14.41h7.48c-.37,1.82-1.09,4.62-2.73,9.37l.12.06c2.74-5.41,6.93-10.09,12.7-10.09s7.6,4.13,6.51,10.02l-3.96,20.84"/>
  <path id="path86" class="cls-1" d="M190.32,17.37c-1.33-.42-2.74-.6-4.08-.6-3.16,0-4.67,1.27-4.67,3.22,0,3.7,7.84,5.47,7.84,12.15,0,5.04-4.38,10.27-13.8,10.27-2.01,0-3.78-.17-5.29-.41l1.4-6.57c1.4.49,3.11.85,4.62.85,3.1,0,5.05-1.2,5.05-3.4,0-4.07-7.78-4.98-7.78-12.09,0-5.53,4.31-9.79,13.01-9.79,1.95,0,3.59.13,5.1.43l-1.4,5.95"/>
  <path id="path88" class="cls-1" d="M214.88,17.63h-7.12l-2.54,13.62c-.67,3.64-.19,4.61,2.3,4.61,1.52,0,2.67-.17,3.76-.42l-.72,6.21c-2.01.48-4.32.78-6.2.78-6.5,0-8.33-3.09-6.93-10.33l2.74-14.47h-5.17l1.22-6.02h5.1l1.76-9.29,7.91-1.58-2.07,10.87h7.17l-1.22,6.02"/>
  <path id="path90" class="cls-1" d="M246.91,11.97c-3.41-.67-7.05-.91-10.7-.91-13.25,0-19.39,10.57-19.39,22,0,6.45,2.49,9.42,7.11,9.42,6.02,0,10.22-5.83,12.65-10.28h.12c-1.4,4.2-2.31,7.24-2.86,9.6h7.54c1.27-7.96,2.86-15.8,5.53-29.84M238.27,17.57l-.36,1.94c-1.21,6.38-6.62,16.29-10.93,16.29-1.52,0-2.31-1.21-2.31-4.2,0-6.32,3.21-14.47,10.2-14.47,1.34,0,2.43.18,3.4.43Z"/>
  <path id="path92" class="cls-1" d="M275.23,41.81h-7.65l3.65-18.96c.73-3.7.12-5.23-1.82-5.23-4.07,0-9.55,9.49-10.89,16.53l-1.46,7.66h-7.6l3.04-15.8c.55-2.8,2.19-11.67,2.61-14.41h7.48c-.37,1.82-1.1,4.62-2.74,9.37l.13.06c2.73-5.41,6.92-10.09,12.7-10.09s7.6,4.13,6.5,10.02l-3.96,20.84"/>
  <path id="path94" class="cls-1" d="M303.81,17.63h-7.11l-2.56,13.62c-.66,3.64-.18,4.61,2.31,4.61,1.52,0,2.67-.17,3.78-.42l-.74,6.21c-2.01.48-4.31.78-6.19.78-6.51,0-8.34-3.09-6.94-10.33l2.74-14.47h-5.17l1.21-6.02h5.11l1.77-9.29,7.89-1.58-2.06,10.87h7.17l-1.22,6.02"/>
  <path id="path96" class="cls-1" d="M366.17,41.81h-8.32l.97-19.44c.18-3.89.37-7.05.66-9.91h-.12c-.98,2.62-2.25,5.53-3.83,8.75l-10.33,20.6h-7.66l-2.42-19.02c-.43-3.35-.74-7.3-.68-10.34h-.06c-.9,3.59-1.88,6.87-3.04,10.46l-5.89,18.9h-8.09L331.34.79h9.06l2.74,21.09c.36,2.91.54,5.72.54,8.63h.12c1.21-3.16,2.24-5.41,3.83-8.51l10.88-21.21h9.05l-1.4,41.02"/>
  <path id="path98" class="cls-1" d="M399.3,18.35c0-3.64-2.31-7.36-9.78-7.36-9.42,0-17.09,8.58-17.09,21.22,0,6.7,3.04,10.21,10.71,10.21,4,0,7.96-.65,11.31-1.94v-5.95c-2.8,1.15-5.91,1.81-8.81,1.81-4.2,0-5.53-1.03-5.53-4.49,0-.67.12-1.71.18-2.37,11.84-.37,19.02-3.89,19.02-11.13M391.77,19.4c0,3.22-3.66,4.67-10.64,4.92,1.09-3.95,3.58-7.59,7.53-7.59,1.94,0,3.11.97,3.11,2.67Z"/>
  <path id="path100" class="cls-1" d="M420.52,17.37c-1.34-.42-2.74-.6-4.08-.6-3.15,0-4.68,1.27-4.68,3.22,0,3.7,7.84,5.47,7.84,12.15,0,5.04-4.38,10.27-13.8,10.27-2,0-3.76-.17-5.29-.41l1.4-6.57c1.38.49,3.1.85,4.62.85,3.1,0,5.04-1.2,5.04-3.4,0-4.07-7.77-4.98-7.77-12.09,0-5.53,4.31-9.79,13.01-9.79,1.94,0,3.58.13,5.11.43l-1.41,5.95"/>
  <path id="path102" class="cls-1" d="M443.43,17.37c-1.33-.42-2.73-.6-4.06-.6-3.17,0-4.69,1.27-4.69,3.22,0,3.7,7.84,5.47,7.84,12.15,0,5.04-4.38,10.27-13.8,10.27-2.01,0-3.77-.17-5.29-.41l1.4-6.57c1.4.49,3.1.85,4.61.85,3.11,0,5.05-1.2,5.05-3.4,0-4.07-7.78-4.98-7.78-12.09,0-5.53,4.32-9.79,13.01-9.79,1.95,0,3.59.13,5.11.43l-1.4,5.95"/>
  <path id="path104" class="cls-1" d="M474.62,18.35c0-3.64-2.31-7.36-9.78-7.36-9.42,0-17.09,8.58-17.09,21.22,0,6.7,3.04,10.21,10.71,10.21,4,0,7.96-.65,11.3-1.94v-5.95c-2.8,1.15-5.9,1.81-8.81,1.81-4.2,0-5.53-1.03-5.53-4.49,0-.67.12-1.71.18-2.37,11.84-.37,19.02-3.89,19.02-11.13M467.08,19.4c0,3.22-3.65,4.67-10.64,4.92,1.09-3.95,3.58-7.59,7.54-7.59,1.93,0,3.1.97,3.1,2.67Z"/>
  <path id="path106" class="cls-1" d="M502.59,41.81h-7.67l3.65-18.96c.74-3.7.12-5.23-1.83-5.23-4.07,0-9.53,9.49-10.87,16.53l-1.46,7.66h-7.6l3.05-15.8c.54-2.8,2.18-11.67,2.62-14.41h7.47c-.37,1.82-1.09,4.62-2.73,9.37l.12.06c2.74-5.41,6.93-10.09,12.71-10.09s7.59,4.13,6.5,10.02l-3.94,20.84"/>
  <path id="path108" class="cls-1" d="M541.18,11.97c-3.4-.67-7.05-.91-10.69-.91-13.26,0-19.41,10.57-19.41,22,0,6.45,2.5,9.42,7.13,9.42,6.01,0,10.2-5.83,12.57-10.15l.13.07c-1.71,4.73-2.43,6.93-3.11,10.39-1.04,5.41-4.31,7.6-10.03,7.6-2.8,0-5.9-.62-8.33-1.77l-1.77,7.11c2.38.79,5.36,1.28,8.76,1.28,11.8,0,17.09-4.98,18.66-13.31l6.08-31.73M532.55,17.57l-.37,1.94c-1.21,6.38-6.62,16.29-10.94,16.29-1.52,0-2.31-1.21-2.31-4.2,0-6.32,3.21-14.47,10.21-14.47,1.35,0,2.43.18,3.41.43Z"/>
  <path id="path110" class="cls-1" d="M570.84,18.35c0-3.64-2.31-7.36-9.79-7.36-9.42,0-17.09,8.58-17.09,21.22,0,6.7,3.04,10.21,10.71,10.21,4.01,0,7.96-.65,11.31-1.94v-5.95c-2.8,1.15-5.9,1.81-8.82,1.81-4.19,0-5.52-1.03-5.52-4.49,0-.67.13-1.71.18-2.37,11.85-.37,19.02-3.89,19.02-11.13M563.3,19.4c0,3.22-3.65,4.67-10.63,4.92,1.09-3.95,3.58-7.59,7.53-7.59,1.94,0,3.1.97,3.1,2.67Z"/>
  <path id="path112" class="cls-1" d="M593.63,18.48c-4.43-1.4-9.84,6.56-11.73,16.77l-1.27,6.56h-7.6l3.04-15.8c.54-2.8,2.18-11.67,2.61-14.41h7.35c-.42,2.32-1.15,4.99-2.61,9.12h.12c3.22-6.38,6.5-10.57,11.73-9.73l-1.65,7.48"/>
</svg>